<?xml version="1.0" standalone="no"?>
<!DOCTYPE svg PUBLIC "-//W3C//DTD SVG 20010904//EN"
 "http://www.w3.org/TR/2001/REC-SVG-20010904/DTD/svg10.dtd">
<svg version="1.0" xmlns="http://www.w3.org/2000/svg"
 width="512.000000pt" height="512.000000pt" viewBox="0 0 512.000000 512.000000"
 preserveAspectRatio="xMidYMid meet">
<metadata>
Created by potrace 1.11, written by Peter Selinger 2001-2013
</metadata>
<g transform="translate(0.000000,512.000000) scale(0.100000,-0.100000)"
fill="#000000" stroke="none">
<path d="M2370 5109 c-608 -44 -1178 -306 -1615 -744 -397 -396 -642 -885
-726 -1445 -31 -205 -31 -515 0 -720 84 -560 329 -1049 726 -1445 395 -396
895 -647 1440 -724 704 -100 1377 79 1945 517 109 85 347 323 432 432 203 263
357 563 444 864 230 795 68 1633 -444 2296 -85 109 -323 347 -432 432 -519
400 -1126 585 -1770 537z m490 -425 c711 -100 1338 -563 1642 -1212 137 -293
200 -580 200 -912 0 -263 -35 -472 -118 -712 -210 -602 -710 -1102 -1312
-1312 -696 -242 -1433 -123 -2027 327 -103 79 -303 279 -382 382 -150 198
-272 427 -342 640 -224 686 -100 1407 342 1990 79 103 279 303 382 382 330
250 709 402 1105 442 119 12 372 5 510 -15z"/>
<path d="M2350 3480 l0 -710 -710 0 -710 0 0 -205 0 -205 920 0 920 0 0 915 0
915 -210 0 -210 0 0 -710z"/>
</g>
</svg>
